name D:\school\WTK\thesis\model\3dpredictsim\Results\Batchsim_tmt_linear_v2\Pog_s1_tmt_bCst_d00_k1000_ig24_act.mot
datacolumns 128
datarows 4
range 1.98489104 2.02458886
endheader
time	pelvis_tilt	pelvis_list	pelvis_rotation	pelvis_tx	pelvis_ty	pelvis_tz	hip_flexion_l	hip_adduction_l	hip_rotation_l	hip_flexion_r	hip_adduction_r	hip_rotation_r	knee_angle_l	knee_angle_r	ankle_angle_l	ankle_angle_r	subtalar_angle_l	subtalar_angle_r	tmt_angle_l	tmt_angle_r	mtp_angle_l	mtp_angle_r	lumbar_extension	lumbar_bending	lumbar_rotation	arm_flex_l	arm_add_l	arm_rot_l	arm_flex_r	arm_add_r	arm_rot_r	elbow_flex_l	elbow_flex_r	pro_sup_l	pro_sup_r	glut_med1_l/activation	glut_med2_l/activation	glut_med3_l/activation	glut_min1_l/activation	glut_min2_l/activation	glut_min3_l/activation	semimem_l/activation	semiten_l/activation	bifemlh_l/activation	bifemsh_l/activation	sar_l/activation	add_long_l/activation	add_brev_l/activation	add_mag1_l/activation	add_mag2_l/activation	add_mag3_l/activation	tfl_l/activation	pect_l/activation	grac_l/activation	glut_max1_l/activation	glut_max2_l/activation	glut_max3_l/activation	iliacus_l/activation	psoas_l/activation	quad_fem_l/activation	gem_l/activation	peri_l/activation	rect_fem_l/activation	vas_med_l/activation	vas_int_l/activation	vas_lat_l/activation	med_gas_l/activation	lat_gas_l/activation	soleus_l/activation	tib_post_l/activation	flex_dig_l/activation	flex_hal_l/activation	tib_ant_l/activation	per_brev_l/activation	per_long_l/activation	per_tert_l/activation	ext_dig_l/activation	ext_hal_l/activation	ercspn_l/activation	intobl_l/activation	extobl_l/activation	glut_med1_r/activation	glut_med2_r/activation	glut_med3_r/activation	glut_min1_r/activation	glut_min2_r/activation	glut_min3_r/activation	semimem_r/activation	semiten_r/activation	bifemlh_r/activation	bifemsh_r/activation	sar_r/activation	add_long_r/activation	add_brev_r/activation	add_mag1_r/activation	add_mag2_r/activation	add_mag3_r/activation	tfl_r/activation	pect_r/activation	grac_r/activation	glut_max1_r/activation	glut_max2_r/activation	glut_max3_r/activation	iliacus_r/activation	psoas_r/activation	quad_fem_r/activation	gem_r/activation	peri_r/activation	rect_fem_r/activation	vas_med_r/activation	vas_int_r/activation	vas_lat_r/activation	med_gas_r/activation	lat_gas_r/activation	soleus_r/activation	tib_post_r/activation	flex_dig_r/activation	flex_hal_r/activation	tib_ant_r/activation	per_brev_r/activation	per_long_r/activation	per_tert_r/activation	ext_dig_r/activation	ext_hal_r/activation	ercspn_r/activation	intobl_r/activation	extobl_r/activation	
          1.98489104	         -1.62688055	         -1.77846975	         -9.79939998	          2.48111380	          0.85955369	          0.00407357	         29.17713731	         -3.17351775	          0.17232282	        -16.99665942	          0.18363975	          4.18838263	         -7.46806187	        -17.45213656	         10.10646193	        -14.83774780	          2.57682837	          5.80813429	          0.02053183	          1.02924632	         -0.06059752	         37.36288817	          1.41845560	          5.47046092	          3.96510422	        -13.40510346	        -13.45018233	         14.55642930	          1.40615787	        -13.55959911	          8.59782203	         20.08691666	         29.61787074	         86.51662706	         86.51662706	          0.10489566	          0.07044963	          0.09424922	          0.05000055	          0.05000078	          0.05000125	          0.06393359	          0.06904250	          0.06358010	          0.06482293	          0.06102795	          0.05000026	          0.05000028	          0.18921905	          0.13690148	          0.12364094	          0.06286002	          0.05000089	          0.05000096	          0.06772415	          0.09161482	          0.12257581	          0.08338035	          0.08060549	          0.09641046	          0.05491165	          0.08034336	          0.05000249	          0.05001894	          0.05356691	          0.05000596	          0.06102717	          0.06102719	          0.06102716	          0.06102721	          0.05000081	          0.06102729	          0.42716540	          0.24235046	          0.15883764	          0.13787647	          0.53714919	          0.30818865	          0.05000001	          0.18138618	          0.13926932	          0.22011978	          0.05033238	          0.05297001	          0.22153196	          0.11095379	          0.06105340	          0.05000168	          0.05000019	          0.05000025	          0.05748603	          0.07742663	          0.21458832	          0.06461425	          0.05000602	          0.05000095	          0.05000031	          0.14725424	          0.10910614	          0.07524095	          0.05000122	          0.05000071	          0.05000061	          0.27777108	          0.45063001	          0.05000324	          0.09091303	          0.07448654	          0.25596134	          0.08240106	          0.08628123	          0.07744012	          0.05000001	          0.07698972	          0.05000000	          0.12282388	          0.10160246	          0.12535896	          0.08716278	          0.20619030	          0.18491520	          0.49526401	          0.40740025	          0.11411265	          0.05000001	          0.07213234	          0.07223518	
          1.99812365	         -1.61705159	         -2.01737453	         -9.82475398	          2.50415015	          0.85836346	          0.00370633	         28.62723846	         -3.17550531	          0.32882261	        -17.17714682	          0.01497348	          3.94676840	         -8.02886131	        -18.98480812	          9.36941573	        -18.06034407	          2.33033952	          6.33841564	          0.04086291	          0.75981855	         -0.05488234	         37.85180133	          1.72657723	          5.34576161	          4.07826484	        -15.67062506	        -13.46834514	         14.77068146	          1.07181122	        -13.63009838	          9.12449189	         20.36494563	         30.61332560	         86.51662706	         86.51662706	          0.14773879	          0.15313118	          0.19022272	          0.06059646	          0.05003458	          0.05000058	          0.05238128	          0.06102711	          0.05209257	          0.05311023	          0.05000073	          0.05015790	          0.09091381	          0.16531215	          0.19995508	          0.16166797	          0.05150172	          0.05000448	          0.06304173	          0.06102731	          0.16422476	          0.19615694	          0.06831414	          0.06604067	          0.07898998	          0.05000035	          0.15867199	          0.05000024	          0.24925177	          0.27538903	          0.20628063	          0.05000000	          0.05000002	          0.05000000	          0.05000004	          0.05427206	          0.05000028	          0.64319447	          0.35484334	          0.20621053	          0.54195324	          0.65073252	          0.50390208	          0.05000001	          0.14861100	          0.11410435	          0.18034579	          0.05000030	          0.05073838	          0.18150278	          0.09090530	          0.05002170	          0.05001392	          0.05103581	          0.06102621	          0.05000028	          0.06343635	          0.26631124	          0.34520067	          0.15520226	          0.07448433	          0.07442643	          0.12064650	          0.10058777	          0.07448592	          0.05002585	          0.05009736	          0.06611800	          0.22757988	          0.39494067	          0.07448620	          0.07448585	          0.06102740	          0.20971097	          0.06751183	          0.07069088	          0.06344728	          0.05000017	          0.06307827	          0.05000005	          0.10063049	          0.08324368	          0.10270752	          0.25483466	          0.31953328	          0.20267350	          0.49083866	          0.55662322	          0.09349334	          0.05391941	          0.05909928	          0.06704357	
          2.01135626	         -1.59945122	         -2.24438402	         -9.80094796	          2.52712178	          0.85651739	          0.00334235	         28.00044074	         -3.11629801	          0.49441907	        -17.15578167	         -0.12121487	          3.75261415	         -9.26533674	        -20.94039271	          8.26117363	        -20.49757614	          2.11688073	          6.88503838	         -0.04393331	          0.58444698	         -0.12596706	         36.32802139	          2.00936568	          5.17471955	          4.16889847	        -17.86465221	        -13.51070408	         15.12326436	          0.72734171	        -13.71199872	          9.62737067	         20.55053385	         31.61475910	         86.51662706	         86.51662706	          0.21947433	          0.28444203	          0.44312695	          0.05000056	          0.05000043	          0.33150425	          0.05303181	          0.05000006	          0.05000022	          0.05000005	          0.06101514	          0.06102722	          0.07448643	          0.13544151	          0.16382474	          0.15793768	          0.05000025	          0.06102741	          0.05165069	          0.05000020	          0.18772893	          0.18725898	          0.06102716	          0.05971917	          0.06471719	          0.11147953	          0.31124496	          0.05000193	          0.20421384	          0.22562829	          0.16900727	          0.05947893	          0.06102712	          0.06102713	          0.05000030	          0.06102713	          0.06102716	          0.60186242	          0.31763842	          0.16895265	          0.44402625	          0.68215079	          0.49193144	          0.05000011	          0.12175806	          0.09348652	          0.22210159	          0.05000967	          0.06102681	          0.14870667	          0.07447945	          0.05000089	          0.05000078	          0.05000017	          0.05000036	          0.05000009	          0.05197555	          0.25248511	          0.28282579	          0.12715871	          0.06102632	          0.06097881	          0.09884659	          0.08622419	          0.06102708	          0.05000824	          0.05000371	          0.05417177	          0.18645787	          0.32357831	          0.06102715	          0.06102693	          0.05000024	          0.17181770	          0.09037785	          0.08499846	          0.06775171	          0.05000003	          0.05168054	          0.05000001	          0.08244729	          0.06820223	          0.08414904	          0.24733316	          0.29212801	          0.18355893	          0.54694502	          0.76443357	          0.34948429	          0.08485791	          0.05000015	          0.05492930	
          2.02458886	         -1.57708149	         -2.44313233	         -9.72268614	          2.54971891	          0.85441724	          0.00296362	         27.35330801	         -3.00448658	          0.67485431	        -16.92750143	         -0.24415221	          3.58781749	        -10.68233095	        -23.26901307	          7.26155501	        -22.18538048	          1.91189323	          7.38220239	         -0.02458467	          0.42068274	         -0.14103467	         32.84203649	          2.25687921	          4.94652644	          4.24045119	        -19.89276950	        -13.55709923	         15.61344098	          0.43675629	        -13.78048156	         10.12842121	         20.55373311	         32.51937652	         86.51662706	         86.51662706	          0.29498079	          0.40453910	          0.49228867	          0.16183770	          0.21928971	          0.27160431	          0.05000063	          0.06610599	          0.05711954	          0.06102695	          0.05000018	          0.05000009	          0.06102729	          0.11096830	          0.16148243	          0.17447350	          0.05000012	          0.05000043	          0.06102724	          0.28484668	          0.25560660	          0.22797361	          0.05000003	          0.05000002	          0.14558332	          0.09133616	          0.25500542	          0.05000001	          0.16731414	          0.24848180	          0.13846918	          0.05000000	          0.05000000	          0.05000000	          0.05000000	          0.05000007	          0.05000004	          0.73746161	          0.36720482	          0.17668214	          0.70461082	          0.80096494	          0.60701163	          0.05695612	          0.09975726	          0.07659418	          0.18196952	          0.05000001	          0.05000000	          0.16283232	          0.06102163	          0.05000004	          0.05826741	          0.05000007	          0.05000013	          0.05000008	          0.05000529	          0.26284105	          0.25897842	          0.10418252	          0.05000102	          0.05000033	          0.08098577	          0.07064879	          0.05000017	          0.05000021	          0.05000015	          0.05000013	          0.15276632	          0.31882444	          0.05000001	          0.05000005	          0.05000002	          0.14077148	          0.07448629	          0.07448630	          0.07448630	          0.05000074	          0.05000203	          0.05983897	          0.06754966	          0.05587866	          0.06894396	          0.35518327	          0.28328873	          0.17449469	          0.63078814	          0.64708065	          0.28633500	          0.12377124	          0.05000000	          0.05000001	
